G04*
G04 #@! TF.GenerationSoftware,Altium Limited,Altium Designer,24.3.1 (35)*
G04*
G04 Layer_Color=8388736*
%FSLAX25Y25*%
%MOIN*%
G70*
G04*
G04 #@! TF.SameCoordinates,C640A665-BD72-4C55-9E38-BDB06A3A2499*
G04*
G04*
G04 #@! TF.FilePolarity,Negative*
G04*
G01*
G75*
%ADD21R,0.05709X0.05709*%
%ADD22R,0.08465X0.05709*%
%ADD23R,0.02362X0.06398*%
%ADD24R,0.04724X0.06102*%
%ADD25R,0.06102X0.04724*%
%ADD26R,0.03543X0.05512*%
%ADD27R,0.06063X0.04173*%
%ADD28C,0.20276*%
%ADD29C,0.06496*%
%ADD30R,0.06496X0.06496*%
%ADD31R,0.06496X0.06496*%
%ADD32R,0.07284X0.07284*%
%ADD33C,0.07284*%
%ADD34R,0.07480X0.07480*%
%ADD35C,0.07480*%
%ADD36R,0.07284X0.07284*%
D21*
X122343Y59740D02*
D03*
X113287D02*
D03*
D22*
X117815Y81394D02*
D03*
D23*
X113976Y93449D02*
D03*
X116535D02*
D03*
X119095D02*
D03*
X121654D02*
D03*
Y116583D02*
D03*
X119095D02*
D03*
X116535D02*
D03*
X113976D02*
D03*
D24*
X92421Y-299D02*
D03*
X99902D02*
D03*
X25492Y47929D02*
D03*
X32972D02*
D03*
X8957Y87300D02*
D03*
X16437D02*
D03*
X22539D02*
D03*
X30020D02*
D03*
X9744Y47929D02*
D03*
X17224D02*
D03*
X56988Y2654D02*
D03*
X64468D02*
D03*
X111909Y130606D02*
D03*
X104429D02*
D03*
D25*
X134547Y102063D02*
D03*
Y109544D02*
D03*
X43996Y91040D02*
D03*
Y83559D02*
D03*
Y77457D02*
D03*
Y69977D02*
D03*
D26*
X134547Y92811D02*
D03*
Y79819D02*
D03*
D27*
X159154Y36827D02*
D03*
Y43284D02*
D03*
D28*
X171260Y0D02*
D03*
X0D02*
D03*
X984Y129918D02*
D03*
X172244Y129918D02*
D03*
D29*
X28248Y139465D02*
D03*
X60728Y82378D02*
D03*
Y90252D02*
D03*
Y98126D02*
D03*
X16437Y64662D02*
D03*
X8563D02*
D03*
X689D02*
D03*
X16437Y105016D02*
D03*
X8563D02*
D03*
X689D02*
D03*
X55807Y-12110D02*
D03*
X35138Y22339D02*
D03*
X27264D02*
D03*
X179823Y96158D02*
D03*
Y64662D02*
D03*
Y34150D02*
D03*
X147343Y-10142D02*
D03*
X83366Y146355D02*
D03*
X153248Y144386D02*
D03*
X118799Y146355D02*
D03*
D30*
X28248Y147339D02*
D03*
X60728Y106000D02*
D03*
X179823Y104032D02*
D03*
Y72536D02*
D03*
Y26276D02*
D03*
D31*
X-7185Y64662D02*
D03*
Y105016D02*
D03*
X63681Y-12110D02*
D03*
X19390Y22339D02*
D03*
X139469Y-10142D02*
D03*
X75492Y146355D02*
D03*
X145374Y144386D02*
D03*
X110925Y146355D02*
D03*
D32*
X87815Y-13094D02*
D03*
D33*
X97815D02*
D03*
X107815D02*
D03*
X117815D02*
D03*
X89272Y105410D02*
D03*
Y95410D02*
D03*
Y85410D02*
D03*
Y75410D02*
D03*
Y65410D02*
D03*
X148327Y105410D02*
D03*
Y95410D02*
D03*
Y85410D02*
D03*
Y75410D02*
D03*
Y65410D02*
D03*
X137972Y43481D02*
D03*
X127972D02*
D03*
X117973D02*
D03*
X107973D02*
D03*
X97973D02*
D03*
X87972D02*
D03*
X77973D02*
D03*
X67972D02*
D03*
X57973D02*
D03*
Y13480D02*
D03*
X67972D02*
D03*
X77973D02*
D03*
X87972D02*
D03*
X97973D02*
D03*
X107973D02*
D03*
X117973D02*
D03*
X127972D02*
D03*
X137972D02*
D03*
X147973D02*
D03*
D34*
X50886Y149465D02*
D03*
X-14075Y38244D02*
D03*
D35*
X50886Y139465D02*
D03*
Y129465D02*
D03*
X-14075Y28244D02*
D03*
Y18244D02*
D03*
D36*
X89272Y115410D02*
D03*
X148327D02*
D03*
X147973Y43481D02*
D03*
M02*
