G04*
G04 #@! TF.GenerationSoftware,Altium Limited,Altium Designer,24.3.1 (35)*
G04*
G04 Layer_Color=16711935*
%FSLAX25Y25*%
%MOIN*%
G70*
G04*
G04 #@! TF.SameCoordinates,C640A665-BD72-4C55-9E38-BDB06A3A2499*
G04*
G04*
G04 #@! TF.FilePolarity,Negative*
G04*
G01*
G75*
%ADD28C,0.20276*%
%ADD29C,0.06496*%
%ADD30R,0.06496X0.06496*%
%ADD31R,0.06496X0.06496*%
%ADD32R,0.07284X0.07284*%
%ADD33C,0.07284*%
%ADD34R,0.07480X0.07480*%
%ADD35C,0.07480*%
%ADD36R,0.07284X0.07284*%
%ADD49R,0.06591X0.06591*%
D28*
X171260Y0D02*
D03*
X0D02*
D03*
X984Y129918D02*
D03*
X172244Y129918D02*
D03*
D29*
X28248Y139465D02*
D03*
X60728Y82378D02*
D03*
Y90252D02*
D03*
Y98126D02*
D03*
X16437Y64662D02*
D03*
X8563D02*
D03*
X689D02*
D03*
X16437Y105016D02*
D03*
X8563D02*
D03*
X689D02*
D03*
X55807Y-12110D02*
D03*
X35138Y22339D02*
D03*
X27264D02*
D03*
X179823Y96158D02*
D03*
Y64662D02*
D03*
Y34150D02*
D03*
X147343Y-10142D02*
D03*
X83366Y146355D02*
D03*
X153248Y144386D02*
D03*
X118799Y146355D02*
D03*
D30*
X28248Y147339D02*
D03*
X60728Y106000D02*
D03*
X179823Y104032D02*
D03*
Y72536D02*
D03*
Y26276D02*
D03*
D31*
X-7185Y64662D02*
D03*
Y105016D02*
D03*
X63681Y-12110D02*
D03*
X19390Y22339D02*
D03*
X139469Y-10142D02*
D03*
X75492Y146355D02*
D03*
X145374Y144386D02*
D03*
X110925Y146355D02*
D03*
D32*
X87815Y-13094D02*
D03*
D33*
X97815D02*
D03*
X107815D02*
D03*
X117815D02*
D03*
X89272Y105410D02*
D03*
Y95410D02*
D03*
Y85410D02*
D03*
Y75410D02*
D03*
Y65410D02*
D03*
X148327Y105410D02*
D03*
Y95410D02*
D03*
Y85410D02*
D03*
Y75410D02*
D03*
Y65410D02*
D03*
X137972Y43481D02*
D03*
X127972D02*
D03*
X117973D02*
D03*
X107973D02*
D03*
X97973D02*
D03*
X87972D02*
D03*
X77973D02*
D03*
X67972D02*
D03*
X57973D02*
D03*
Y13480D02*
D03*
X67972D02*
D03*
X77973D02*
D03*
X87972D02*
D03*
X97973D02*
D03*
X107973D02*
D03*
X117973D02*
D03*
X127972D02*
D03*
X137972D02*
D03*
X147973D02*
D03*
D34*
X50886Y149465D02*
D03*
X-14075Y38244D02*
D03*
D35*
X50886Y139465D02*
D03*
Y129465D02*
D03*
X-14075Y28244D02*
D03*
Y18244D02*
D03*
D36*
X89272Y115410D02*
D03*
X148327D02*
D03*
X147973Y43481D02*
D03*
D49*
X36378Y98855D02*
D03*
X16693Y40784D02*
D03*
X15709Y79169D02*
D03*
M02*
