G04*
G04 #@! TF.GenerationSoftware,Altium Limited,Altium Designer,24.3.1 (35)*
G04*
G04 Layer_Color=32896*
%FSLAX25Y25*%
%MOIN*%
G70*
G04*
G04 #@! TF.SameCoordinates,C640A665-BD72-4C55-9E38-BDB06A3A2499*
G04*
G04*
G04 #@! TF.FilePolarity,Positive*
G04*
G01*
G75*
%ADD12C,0.00700*%
D12*
X41481Y108930D02*
X44280D01*
Y104732D01*
X41481D01*
X44280Y106831D02*
X42881D01*
X37283Y107531D02*
X39382D01*
X40082Y106831D01*
Y105431D01*
X39382Y104732D01*
X37283D01*
X35883Y106831D02*
X33084D01*
X31684Y108930D02*
X28885D01*
X30285D01*
Y104732D01*
X80677Y91672D02*
X77878D01*
X79278D01*
Y87473D01*
X76479Y90272D02*
Y87473D01*
Y88872D01*
X75779Y89572D01*
X75079Y90272D01*
X74379D01*
X72280Y89572D02*
X69481D01*
X68081Y91672D02*
X65282D01*
X66682D01*
Y87473D01*
X34591Y42985D02*
X37391D01*
Y38787D01*
X34591D01*
X37391Y40886D02*
X35991D01*
X30393Y41586D02*
X32492D01*
X33192Y40886D01*
Y39487D01*
X32492Y38787D01*
X30393D01*
X28993Y40886D02*
X26194D01*
X24795Y42985D02*
Y38787D01*
X21996D01*
X34591Y81371D02*
X37391D01*
Y77173D01*
X34591D01*
X37391Y79272D02*
X35991D01*
X30393Y79972D02*
X32492D01*
X33192Y79272D01*
Y77873D01*
X32492Y77173D01*
X30393D01*
X28993Y79272D02*
X26194D01*
X24795Y77173D02*
Y81371D01*
X22695D01*
X21996Y80672D01*
Y79272D01*
X22695Y78572D01*
X24795D01*
X23395D02*
X21996Y77173D01*
X-1257Y61009D02*
Y58210D01*
Y59609D01*
X2942D01*
X143Y56810D02*
X2942D01*
X1542D01*
X842Y56111D01*
X143Y55411D01*
Y54711D01*
X842Y52612D02*
Y49812D01*
X-1257Y48413D02*
X2942D01*
Y45614D01*
Y44214D02*
X-1257D01*
Y42115D01*
X-557Y41415D01*
X842D01*
X1542Y42115D01*
Y44214D01*
Y42815D02*
X2942Y41415D01*
X-1257Y101363D02*
Y98564D01*
Y99964D01*
X2942D01*
X143Y97165D02*
X2942D01*
X1542D01*
X842Y96465D01*
X143Y95765D01*
Y95065D01*
X842Y92966D02*
Y90167D01*
X-1257Y88767D02*
X2942D01*
Y85968D01*
Y84569D02*
X-1257D01*
Y82469D01*
X-557Y81770D01*
X842D01*
X1542Y82469D01*
Y84569D01*
Y83169D02*
X2942Y81770D01*
X79986Y108033D02*
Y103834D01*
X77887D01*
X77187Y104534D01*
Y105234D01*
X77887Y105933D01*
X79986D01*
X77887D01*
X77187Y106633D01*
Y107333D01*
X77887Y108033D01*
X79986D01*
X75788Y103834D02*
Y106633D01*
X74388Y108033D01*
X72988Y106633D01*
Y103834D01*
Y105933D01*
X75788D01*
X71589Y108033D02*
X68790D01*
X70189D01*
Y103834D01*
X67390Y105933D02*
X64591D01*
X65991Y107333D02*
Y104534D01*
X73812Y83244D02*
X74512Y83943D01*
X75912D01*
X76612Y83244D01*
Y80445D01*
X75912Y79745D01*
X74512D01*
X73812Y80445D01*
Y81844D01*
X75212D01*
X72413Y79745D02*
Y83943D01*
X69614Y79745D01*
Y83943D01*
X68214D02*
Y79745D01*
X66115D01*
X65415Y80445D01*
Y83244D01*
X66115Y83943D01*
X68214D01*
X172233Y106962D02*
Y102763D01*
X170134D01*
X169434Y103463D01*
Y106262D01*
X170134Y106962D01*
X172233D01*
X168035Y105562D02*
Y102763D01*
Y104163D01*
X167335Y104863D01*
X166635Y105562D01*
X165935D01*
X163836Y104863D02*
X161037D01*
X159637Y106962D02*
Y102763D01*
X157538D01*
X156838Y103463D01*
Y104163D01*
X157538Y104863D01*
X159637D01*
X157538D01*
X156838Y105562D01*
Y106262D01*
X157538Y106962D01*
X159637D01*
X155439Y106262D02*
X152639Y103463D01*
X155439D02*
X152639Y106262D01*
X155439Y104863D02*
X152639D01*
X154039Y103463D02*
Y106262D01*
X170418Y65908D02*
X171118Y66607D01*
X172518D01*
X173217Y65908D01*
Y65208D01*
X172518Y64508D01*
X171118D01*
X170418Y63809D01*
Y63109D01*
X171118Y62409D01*
X172518D01*
X173217Y63109D01*
X169019Y65208D02*
Y62409D01*
Y63809D01*
X168319Y64508D01*
X167619Y65208D01*
X166919D01*
X164820Y64508D02*
X162021D01*
X160621Y66607D02*
Y62409D01*
X158522D01*
X157822Y63109D01*
Y63809D01*
X158522Y64508D01*
X160621D01*
X158522D01*
X157822Y65208D01*
Y65908D01*
X158522Y66607D01*
X160621D01*
X156423Y65908D02*
X153624Y63109D01*
X156423D02*
X153624Y65908D01*
X156423Y64508D02*
X153624D01*
X155023Y63109D02*
Y65908D01*
X170768Y74182D02*
X171468Y74882D01*
X172868D01*
X173567Y74182D01*
Y73482D01*
X172868Y72783D01*
X171468D01*
X170768Y72083D01*
Y71383D01*
X171468Y70683D01*
X172868D01*
X173567Y71383D01*
X169369Y73482D02*
Y70683D01*
Y72083D01*
X168669Y72783D01*
X167969Y73482D01*
X167270D01*
X165170Y72783D02*
X162371D01*
X160971Y70683D02*
Y73482D01*
X159572Y74882D01*
X158172Y73482D01*
Y70683D01*
Y72783D01*
X160971D01*
X156773Y74182D02*
X153974Y71383D01*
X156773D02*
X153974Y74182D01*
X156773Y72783D02*
X153974D01*
X155373Y71383D02*
Y74182D01*
X172233Y98104D02*
Y93905D01*
X170134D01*
X169434Y94605D01*
Y97404D01*
X170134Y98104D01*
X172233D01*
X168035Y96704D02*
Y93905D01*
Y95305D01*
X167335Y96004D01*
X166635Y96704D01*
X165935D01*
X163836Y96004D02*
X161037D01*
X159637Y93905D02*
Y96704D01*
X158238Y98104D01*
X156838Y96704D01*
Y93905D01*
Y96004D01*
X159637D01*
X155439Y97404D02*
X152639Y94605D01*
X155439D02*
X152639Y97404D01*
X155439Y96004D02*
X152639D01*
X154039Y94605D02*
Y97404D01*
X109360Y141568D02*
X113558D01*
Y138769D01*
X109360Y134571D02*
Y137370D01*
X113558D01*
Y134571D01*
X111459Y137370D02*
Y135970D01*
X109360Y133171D02*
X113558D01*
Y131072D01*
X112859Y130372D01*
X110060D01*
X109360Y131072D01*
Y133171D01*
X64119Y150553D02*
X64819Y151253D01*
X66218D01*
X66918Y150553D01*
Y147754D01*
X66218Y147055D01*
X64819D01*
X64119Y147754D01*
Y149154D01*
X65519D01*
X62720Y147055D02*
Y151253D01*
X59920Y147055D01*
Y151253D01*
X58521D02*
Y147055D01*
X56422D01*
X55722Y147754D01*
Y150553D01*
X56422Y151253D01*
X58521D01*
X30654Y133821D02*
X31354Y134521D01*
X32754D01*
X33454Y133821D01*
Y131022D01*
X32754Y130322D01*
X31354D01*
X30654Y131022D01*
Y132422D01*
X32054D01*
X29255Y130322D02*
Y134521D01*
X26456Y130322D01*
Y134521D01*
X25056D02*
Y130322D01*
X22957D01*
X22257Y131022D01*
Y133821D01*
X22957Y134521D01*
X25056D01*
X70855Y141411D02*
Y137212D01*
X68756D01*
X68056Y137912D01*
Y138612D01*
X68756Y139311D01*
X70855D01*
X68756D01*
X68056Y140011D01*
Y140711D01*
X68756Y141411D01*
X70855D01*
X66657Y137212D02*
Y140011D01*
X65257Y141411D01*
X63857Y140011D01*
Y137212D01*
Y139311D01*
X66657D01*
X62458Y141411D02*
X59659D01*
X61058D01*
Y137212D01*
X58259Y139311D02*
X55460D01*
X56860Y140711D02*
Y137912D01*
X64119Y130868D02*
X64819Y131568D01*
X66218D01*
X66918Y130868D01*
Y130169D01*
X66218Y129469D01*
X64819D01*
X64119Y128769D01*
Y128069D01*
X64819Y127369D01*
X66218D01*
X66918Y128069D01*
X60620Y127369D02*
X62020D01*
X62720Y128069D01*
Y129469D01*
X62020Y130169D01*
X60620D01*
X59920Y129469D01*
Y128769D01*
X62720D01*
X58521Y130169D02*
Y127369D01*
Y128769D01*
X57821Y129469D01*
X57121Y130169D01*
X56422D01*
X-9862Y101033D02*
X-5663D01*
Y98934D01*
X-6363Y98234D01*
X-7063D01*
X-7762Y98934D01*
Y101033D01*
Y98934D01*
X-8462Y98234D01*
X-9162D01*
X-9862Y98934D01*
Y101033D01*
X-5663Y96834D02*
X-8462D01*
X-9862Y95435D01*
X-8462Y94035D01*
X-5663D01*
X-7762D01*
Y96834D01*
X-9862Y92636D02*
Y89837D01*
Y91236D01*
X-5663D01*
X-7762Y88437D02*
Y85638D01*
X-9162Y87038D02*
X-6363D01*
X-8878Y59694D02*
X-4679D01*
Y57595D01*
X-5379Y56895D01*
X-6078D01*
X-6778Y57595D01*
Y59694D01*
Y57595D01*
X-7478Y56895D01*
X-8178D01*
X-8878Y57595D01*
Y59694D01*
X-4679Y55496D02*
X-7478D01*
X-8878Y54096D01*
X-7478Y52697D01*
X-4679D01*
X-6778D01*
Y55496D01*
X-8878Y51297D02*
Y48498D01*
Y49898D01*
X-4679D01*
X-6778Y47099D02*
Y44300D01*
X-8178Y45699D02*
X-5379D01*
X15572Y57076D02*
X14872Y57776D01*
Y59176D01*
X15572Y59876D01*
X18371D01*
X19070Y59176D01*
Y57776D01*
X18371Y57076D01*
X16971D01*
Y58476D01*
X19070Y55677D02*
X14872D01*
X19070Y52878D01*
X14872D01*
Y51478D02*
X19070D01*
Y49379D01*
X18371Y48679D01*
X15572D01*
X14872Y49379D01*
Y51478D01*
X15572Y97431D02*
X14872Y98131D01*
Y99530D01*
X15572Y100230D01*
X18371D01*
X19070Y99530D01*
Y98131D01*
X18371Y97431D01*
X16971D01*
Y98830D01*
X19070Y96031D02*
X14872D01*
X19070Y93232D01*
X14872D01*
Y91833D02*
X19070D01*
Y89733D01*
X18371Y89033D01*
X15572D01*
X14872Y89733D01*
Y91833D01*
X117934Y138769D02*
X117234Y139469D01*
Y140869D01*
X117934Y141568D01*
X120733D01*
X121432Y140869D01*
Y139469D01*
X120733Y138769D01*
X119333D01*
Y140169D01*
X121432Y137370D02*
X117234D01*
X121432Y134571D01*
X117234D01*
Y133171D02*
X121432D01*
Y131072D01*
X120733Y130372D01*
X117934D01*
X117234Y131072D01*
Y133171D01*
X152383Y136801D02*
X151683Y137501D01*
Y138900D01*
X152383Y139600D01*
X155182D01*
X155881Y138900D01*
Y137501D01*
X155182Y136801D01*
X153782D01*
Y138200D01*
X155881Y135401D02*
X151683D01*
X155881Y132602D01*
X151683D01*
Y131203D02*
X155881D01*
Y129103D01*
X155182Y128403D01*
X152383D01*
X151683Y129103D01*
Y131203D01*
X82501Y138769D02*
X81801Y139469D01*
Y140869D01*
X82501Y141568D01*
X85300D01*
X86000Y140869D01*
Y139469D01*
X85300Y138769D01*
X83900D01*
Y140169D01*
X86000Y137370D02*
X81801D01*
X86000Y134571D01*
X81801D01*
Y133171D02*
X86000D01*
Y131072D01*
X85300Y130372D01*
X82501D01*
X81801Y131072D01*
Y133171D01*
X74519Y139262D02*
X73819Y139962D01*
Y141361D01*
X74519Y142061D01*
X75218D01*
X75918Y141361D01*
Y139962D01*
X76618Y139262D01*
X77318D01*
X78017Y139962D01*
Y141361D01*
X77318Y142061D01*
X74519Y137163D02*
X75218D01*
Y137863D01*
Y136463D01*
Y137163D01*
X77318D01*
X78017Y136463D01*
X75218Y133664D02*
Y132264D01*
X75918Y131565D01*
X78017D01*
Y133664D01*
X77318Y134364D01*
X76618Y133664D01*
Y131565D01*
X75218Y130165D02*
X78017D01*
X76618D01*
X75918Y129465D01*
X75218Y128765D01*
Y128066D01*
X74519Y125267D02*
X75218D01*
Y125966D01*
Y124567D01*
Y125267D01*
X77318D01*
X78017Y124567D01*
X147627Y139749D02*
X143428D01*
X144828Y138349D01*
X143428Y136950D01*
X147627D01*
Y134851D02*
Y133451D01*
X146927Y132751D01*
X145528D01*
X144828Y133451D01*
Y134851D01*
X145528Y135550D01*
X146927D01*
X147627Y134851D01*
X143428Y128553D02*
X147627D01*
Y130652D01*
X146927Y131352D01*
X145528D01*
X144828Y130652D01*
Y128553D01*
X147627Y125054D02*
Y126453D01*
X146927Y127153D01*
X145528D01*
X144828Y126453D01*
Y125054D01*
X145528Y124354D01*
X146227D01*
Y127153D01*
X171403Y35396D02*
X172102Y36096D01*
X173502D01*
X174202Y35396D01*
Y32597D01*
X173502Y31897D01*
X172102D01*
X171403Y32597D01*
Y33996D01*
X172802D01*
X170003Y31897D02*
Y36096D01*
X167204Y31897D01*
Y36096D01*
X165804D02*
Y31897D01*
X163705D01*
X163005Y32597D01*
Y35396D01*
X163705Y36096D01*
X165804D01*
X174202Y28222D02*
Y24023D01*
X172102D01*
X171403Y24723D01*
Y25423D01*
X172102Y26122D01*
X174202D01*
X172102D01*
X171403Y26822D01*
Y27522D01*
X172102Y28222D01*
X174202D01*
X170003D02*
Y24023D01*
X167204D01*
X165804Y28222D02*
Y24023D01*
Y25423D01*
X163005Y28222D01*
X165105Y26122D01*
X163005Y24023D01*
X137523Y-16747D02*
X141721D01*
X140322Y-18146D01*
X141721Y-19546D01*
X137523D01*
Y-20946D02*
X141721D01*
X139622D01*
Y-23745D01*
X137523D01*
X141721D01*
X137523Y-25144D02*
Y-27943D01*
Y-26544D01*
X141721D01*
X146519Y-18925D02*
X145819Y-18225D01*
Y-16826D01*
X146519Y-16126D01*
X149318D01*
X150018Y-16826D01*
Y-18225D01*
X149318Y-18925D01*
X147919D01*
Y-17525D01*
X150018Y-20324D02*
X145819D01*
X150018Y-23124D01*
X145819D01*
Y-24523D02*
X150018D01*
Y-26622D01*
X149318Y-27322D01*
X146519D01*
X145819Y-26622D01*
Y-24523D01*
X54505Y-19391D02*
X53805Y-18691D01*
Y-17291D01*
X54505Y-16592D01*
X57304D01*
X58004Y-17291D01*
Y-18691D01*
X57304Y-19391D01*
X55905D01*
Y-17991D01*
X58004Y-20790D02*
X53805D01*
X58004Y-23589D01*
X53805D01*
Y-24989D02*
X58004D01*
Y-27088D01*
X57304Y-27788D01*
X54505D01*
X53805Y-27088D01*
Y-24989D01*
X61735Y-17731D02*
X65934D01*
Y-20530D01*
X61735Y-24729D02*
Y-21930D01*
X65934D01*
Y-24729D01*
X63835Y-21930D02*
Y-23329D01*
X61735Y-26129D02*
X65934D01*
Y-28228D01*
X65234Y-28928D01*
X62435D01*
X61735Y-28228D01*
Y-26129D01*
X34438Y156175D02*
Y151976D01*
X32339D01*
X31639Y152676D01*
Y153375D01*
X32339Y154075D01*
X34438D01*
X32339D01*
X31639Y154775D01*
Y155475D01*
X32339Y156175D01*
X34438D01*
X30239Y151976D02*
Y154775D01*
X28840Y156175D01*
X27440Y154775D01*
Y151976D01*
Y154075D01*
X30239D01*
X26041Y156175D02*
X23242D01*
X24641D01*
Y151976D01*
X21842Y154075D02*
X19043D01*
X20442Y155475D02*
Y152676D01*
X6879Y39048D02*
Y34850D01*
X4780D01*
X4080Y35550D01*
Y36249D01*
X4780Y36949D01*
X6879D01*
X4780D01*
X4080Y37649D01*
Y38349D01*
X4780Y39048D01*
X6879D01*
X2680Y34850D02*
Y37649D01*
X1281Y39048D01*
X-119Y37649D01*
Y34850D01*
Y36949D01*
X2680D01*
X-1519Y39048D02*
X-4318D01*
X-2918D01*
Y34850D01*
X-5717Y36949D02*
X-8516D01*
X-7117Y38349D02*
Y35550D01*
X-5268Y16299D02*
X-5968Y15599D01*
X-7368D01*
X-8067Y16299D01*
Y19098D01*
X-7368Y19798D01*
X-5968D01*
X-5268Y19098D01*
Y17699D01*
X-6668D01*
X-3869Y19798D02*
Y15599D01*
X-1070Y19798D01*
Y15599D01*
X330D02*
Y19798D01*
X2429D01*
X3129Y19098D01*
Y16299D01*
X2429Y15599D01*
X330D01*
X3449Y29782D02*
X2749Y30482D01*
X1349D01*
X649Y29782D01*
Y29082D01*
X1349Y28382D01*
X2049D01*
X1349D01*
X649Y27683D01*
Y26983D01*
X1349Y26283D01*
X2749D01*
X3449Y26983D01*
X-750Y30482D02*
Y27683D01*
X-2150Y26283D01*
X-3549Y27683D01*
Y30482D01*
X-4949Y29782D02*
X-5649Y30482D01*
X-7048D01*
X-7748Y29782D01*
Y29082D01*
X-7048Y28382D01*
X-6348D01*
X-7048D01*
X-7748Y27683D01*
Y26983D01*
X-7048Y26283D01*
X-5649D01*
X-4949Y26983D01*
X76499Y39355D02*
Y36556D01*
Y37956D01*
X80698D01*
X77899Y35157D02*
X80698D01*
X79298D01*
X78598Y34457D01*
X77899Y33757D01*
Y33057D01*
X78598Y30958D02*
Y28159D01*
X76499Y26759D02*
X80698D01*
Y23960D01*
Y22561D02*
X76499D01*
Y20461D01*
X77199Y19762D01*
X78598D01*
X79298Y20461D01*
Y22561D01*
Y21161D02*
X80698Y19762D01*
X55729Y36089D02*
Y38888D01*
X59927D01*
Y36089D01*
X57828Y38888D02*
Y37489D01*
X57128Y31891D02*
Y33990D01*
X57828Y34690D01*
X59228D01*
X59927Y33990D01*
Y31891D01*
X57828Y30491D02*
Y27692D01*
X55729Y26292D02*
X59927D01*
Y23493D01*
X66556Y36089D02*
Y38888D01*
X70754D01*
Y36089D01*
X68655Y38888D02*
Y37489D01*
X67955Y31891D02*
Y33990D01*
X68655Y34690D01*
X70054D01*
X70754Y33990D01*
Y31891D01*
X68655Y30491D02*
Y27692D01*
X70754Y26292D02*
X66556D01*
Y24193D01*
X67255Y23493D01*
X68655D01*
X69355Y24193D01*
Y26292D01*
Y24893D02*
X70754Y23493D01*
X17852Y17224D02*
X17153Y16524D01*
Y15125D01*
X17852Y14425D01*
X18552D01*
X19252Y15125D01*
Y15825D01*
Y15125D01*
X19952Y14425D01*
X20651D01*
X21351Y15125D01*
Y16524D01*
X20651Y17224D01*
X17153Y13026D02*
X19952D01*
X21351Y11626D01*
X19952Y10227D01*
X17153D01*
X17852Y8827D02*
X17153Y8127D01*
Y6728D01*
X17852Y6028D01*
X18552D01*
X19252Y6728D01*
Y7428D01*
Y6728D01*
X19952Y6028D01*
X20651D01*
X21351Y6728D01*
Y8127D01*
X20651Y8827D01*
X25403Y14826D02*
X24703Y15526D01*
Y16925D01*
X25403Y17625D01*
X28202D01*
X28902Y16925D01*
Y15526D01*
X28202Y14826D01*
X26803D01*
Y16225D01*
X28902Y13426D02*
X24703D01*
X28902Y10627D01*
X24703D01*
Y9228D02*
X28902D01*
Y7128D01*
X28202Y6428D01*
X25403D01*
X24703Y7128D01*
Y9228D01*
X33444Y16758D02*
Y15359D01*
Y16059D01*
X37643D01*
Y16758D01*
Y15359D01*
Y13259D02*
X33444D01*
Y11160D01*
X34144Y10460D01*
X35543D01*
X36243Y11160D01*
Y13259D01*
Y11860D02*
X37643Y10460D01*
X55098Y7900D02*
Y6500D01*
Y7200D01*
X59296D01*
Y7900D01*
Y6500D01*
Y4401D02*
X55098D01*
Y2302D01*
X55797Y1602D01*
X57197D01*
X57897Y2302D01*
Y4401D01*
Y3002D02*
X59296Y1602D01*
X66133Y5194D02*
X65433Y5893D01*
Y7293D01*
X66133Y7993D01*
X66832D01*
X67532Y7293D01*
Y5893D01*
X68232Y5194D01*
X68932D01*
X69631Y5893D01*
Y7293D01*
X68932Y7993D01*
X69631Y1695D02*
Y3094D01*
X68932Y3794D01*
X67532D01*
X66832Y3094D01*
Y1695D01*
X67532Y995D01*
X68232D01*
Y3794D01*
X66832Y-405D02*
X69631D01*
X68232D01*
X67532Y-1104D01*
X66832Y-1804D01*
Y-2504D01*
X75515Y8844D02*
X79713D01*
Y6044D01*
X75515Y1846D02*
Y4645D01*
X79713D01*
Y1846D01*
X77614Y4645D02*
Y3245D01*
X75515Y446D02*
X79713D01*
Y-1653D01*
X79014Y-2353D01*
X76214D01*
X75515Y-1653D01*
Y446D01*
X95767Y38449D02*
X99965D01*
Y36349D01*
X99266Y35650D01*
X96466D01*
X95767Y36349D01*
Y38449D01*
X97166Y34250D02*
X99965D01*
X98566D01*
X97866Y33550D01*
X97166Y32851D01*
Y32151D01*
X97866Y30052D02*
Y27253D01*
X95767Y25853D02*
X99965D01*
Y23754D01*
X99266Y23054D01*
X98566D01*
X97866Y23754D01*
Y25853D01*
Y23754D01*
X97166Y23054D01*
X96466D01*
X95767Y23754D01*
Y25853D01*
X106793Y35827D02*
X106094Y36527D01*
Y37926D01*
X106793Y38626D01*
X107493D01*
X108193Y37926D01*
Y36527D01*
X108893Y35827D01*
X109592D01*
X110292Y36527D01*
Y37926D01*
X109592Y38626D01*
X106793Y33727D02*
X107493D01*
Y34427D01*
Y33028D01*
Y33727D01*
X109592D01*
X110292Y33028D01*
X107493Y30229D02*
Y28829D01*
X108193Y28129D01*
X110292D01*
Y30229D01*
X109592Y30928D01*
X108893Y30229D01*
Y28129D01*
X107493Y26730D02*
X110292D01*
X108893D01*
X108193Y26030D01*
X107493Y25330D01*
Y24631D01*
X106793Y21831D02*
X107493D01*
Y22531D01*
Y21132D01*
Y21831D01*
X109592D01*
X110292Y21132D01*
X115869Y35572D02*
Y38371D01*
X120068D01*
Y35572D01*
X117968Y38371D02*
Y36972D01*
X117269Y31373D02*
Y33473D01*
X117968Y34172D01*
X119368D01*
X120068Y33473D01*
Y31373D01*
X117968Y29974D02*
Y27175D01*
X115869Y25775D02*
Y22976D01*
Y24376D01*
X120068D01*
X129910Y38371D02*
X125712D01*
X127111Y36972D01*
X125712Y35572D01*
X129910D01*
Y33473D02*
Y32073D01*
X129210Y31373D01*
X127811D01*
X127111Y32073D01*
Y33473D01*
X127811Y34172D01*
X129210D01*
X129910Y33473D01*
X125712Y27175D02*
X129910D01*
Y29274D01*
X129210Y29974D01*
X127811D01*
X127111Y29274D01*
Y27175D01*
X129910Y23676D02*
Y25075D01*
X129210Y25775D01*
X127811D01*
X127111Y25075D01*
Y23676D01*
X127811Y22976D01*
X128511D01*
Y25775D01*
X136081Y39335D02*
Y36536D01*
Y37936D01*
X140279D01*
X137480Y35136D02*
X140279D01*
X138880D01*
X138180Y34437D01*
X137480Y33737D01*
Y33037D01*
X138180Y30938D02*
Y28139D01*
X136081Y26739D02*
Y23940D01*
Y25340D01*
X140279D01*
X147081Y38371D02*
X146381Y37671D01*
Y36272D01*
X147081Y35572D01*
X147781D01*
X148480Y36272D01*
Y36972D01*
Y36272D01*
X149180Y35572D01*
X149880D01*
X150580Y36272D01*
Y37671D01*
X149880Y38371D01*
X146381Y34172D02*
X149180D01*
X150580Y32773D01*
X149180Y31373D01*
X146381D01*
X147081Y29974D02*
X146381Y29274D01*
Y27874D01*
X147081Y27175D01*
X147781D01*
X148480Y27874D01*
Y28574D01*
Y27874D01*
X149180Y27175D01*
X149880D01*
X150580Y27874D01*
Y29274D01*
X149880Y29974D01*
X147321Y5334D02*
X146622Y6034D01*
Y7434D01*
X147321Y8133D01*
X150121D01*
X150820Y7434D01*
Y6034D01*
X150121Y5334D01*
X148721D01*
Y6734D01*
X150820Y3935D02*
X146622D01*
X150820Y1136D01*
X146622D01*
Y-264D02*
X150820D01*
Y-2363D01*
X150121Y-3063D01*
X147321D01*
X146622Y-2363D01*
Y-264D01*
X135795Y8133D02*
X139994D01*
Y6034D01*
X139294Y5334D01*
X138594D01*
X137894Y6034D01*
Y8133D01*
Y6034D01*
X137195Y5334D01*
X136495D01*
X135795Y6034D01*
Y8133D01*
Y3935D02*
X139994D01*
Y1136D01*
X135795Y-264D02*
X139994D01*
X138594D01*
X135795Y-3063D01*
X137894Y-964D01*
X139994Y-3063D01*
X125668Y8294D02*
X129866D01*
X128467Y6895D01*
X129866Y5495D01*
X125668D01*
Y4096D02*
X129866D01*
X127767D01*
Y1297D01*
X125668D01*
X129866D01*
X125668Y-103D02*
Y-2902D01*
Y-1503D01*
X129866D01*
X96840Y6479D02*
X96140Y7179D01*
Y8579D01*
X96840Y9279D01*
X97540D01*
X98239Y8579D01*
Y7179D01*
X98939Y6479D01*
X99639D01*
X100339Y7179D01*
Y8579D01*
X99639Y9279D01*
X97540Y5080D02*
X100339D01*
X98939D01*
X98239Y4380D01*
X97540Y3680D01*
Y2981D01*
X98239Y881D02*
Y-1918D01*
X96140Y-3317D02*
X100339D01*
Y-5417D01*
X99639Y-6117D01*
X98939D01*
X98239Y-5417D01*
Y-3317D01*
Y-5417D01*
X97540Y-6117D01*
X96840D01*
X96140Y-5417D01*
Y-3317D01*
X110379Y77719D02*
X111079Y78419D01*
X112478D01*
X113178Y77719D01*
Y77019D01*
X112478Y76319D01*
X111079D01*
X110379Y75620D01*
Y74920D01*
X111079Y74220D01*
X112478D01*
X113178Y74920D01*
X108979Y77019D02*
Y74220D01*
Y75620D01*
X108280Y76319D01*
X107580Y77019D01*
X106880D01*
X104781Y76319D02*
X101982D01*
X100582Y74220D02*
Y77019D01*
X99182Y78419D01*
X97783Y77019D01*
Y74220D01*
Y76319D01*
X100582D01*
X112194Y107946D02*
Y103747D01*
X110094D01*
X109395Y104447D01*
Y107246D01*
X110094Y107946D01*
X112194D01*
X107995Y106547D02*
Y103747D01*
Y105147D01*
X107295Y105847D01*
X106596Y106547D01*
X105896D01*
X103797Y105847D02*
X100997D01*
X99598Y103747D02*
Y106547D01*
X98198Y107946D01*
X96799Y106547D01*
Y103747D01*
Y105847D01*
X99598D01*
X86057Y6044D02*
X85357Y6744D01*
Y8144D01*
X86057Y8844D01*
X86757D01*
X87457Y8144D01*
Y6744D01*
X88156Y6044D01*
X88856D01*
X89556Y6744D01*
Y8144D01*
X88856Y8844D01*
X86757Y4645D02*
X89556D01*
X88156D01*
X87457Y3945D01*
X86757Y3245D01*
Y2546D01*
X87457Y446D02*
Y-2353D01*
X89556Y-3752D02*
X86757D01*
X85357Y-5152D01*
X86757Y-6551D01*
X89556D01*
X87457D01*
Y-3752D01*
X85357Y38371D02*
X89556D01*
Y36272D01*
X88856Y35572D01*
X86057D01*
X85357Y36272D01*
Y38371D01*
X86757Y34172D02*
X89556D01*
X88156D01*
X87457Y33473D01*
X86757Y32773D01*
Y32073D01*
X87457Y29974D02*
Y27175D01*
X89556Y25775D02*
X86757D01*
X85357Y24376D01*
X86757Y22976D01*
X89556D01*
X87457D01*
Y25775D01*
X109395Y66892D02*
X110094Y67592D01*
X111494D01*
X112194Y66892D01*
Y66192D01*
X111494Y65492D01*
X110094D01*
X109395Y64793D01*
Y64093D01*
X110094Y63393D01*
X111494D01*
X112194Y64093D01*
X107995Y66192D02*
Y63393D01*
Y64793D01*
X107295Y65492D01*
X106596Y66192D01*
X105896D01*
X103797Y65492D02*
X100997D01*
X99598Y67592D02*
Y63393D01*
X97499D01*
X96799Y64093D01*
Y64793D01*
X97499Y65492D01*
X99598D01*
X97499D01*
X96799Y66192D01*
Y66892D01*
X97499Y67592D01*
X99598D01*
X112194Y117789D02*
Y113590D01*
X110094D01*
X109395Y114290D01*
Y117089D01*
X110094Y117789D01*
X112194D01*
X107995Y116389D02*
Y113590D01*
Y114990D01*
X107295Y115689D01*
X106596Y116389D01*
X105896D01*
X103797Y115689D02*
X100997D01*
X99598Y117789D02*
Y113590D01*
X97499D01*
X96799Y114290D01*
Y114990D01*
X97499Y115689D01*
X99598D01*
X97499D01*
X96799Y116389D01*
Y117089D01*
X97499Y117789D01*
X99598D01*
M02*
