M48
;Layer_Color=9474304
;FILE_FORMAT=2:4
INCH,TZ
;TYPE=PLATED
T01F00S00C0.0118
T02F00S00C0.0354
T03F00S00C0.0453
T04F00S00C0.1969
%
T01
X17589Y-1408
X18573Y561
Y4498
Y8435
Y12372
X12667
X10896Y12076
X11683Y10403
X12667Y8435
X10699
X11683Y6466
X13652
X15620
X16604Y4498
X13652Y2529
X11683
X9715
X7746
X8730Y561
X10699
X12667
X15620Y-1408
X7746
X3809
X1841
X2825Y561
X4793
X2530Y4006
X2254Y7891
X3711Y9222
X6762Y8435
X5778Y6958
X5778Y6466
X6368Y6072
X7254Y5482
X7746Y10403
X8730Y12372
X6762
X4793
X2825
X-1112
X-2096Y10403
X-1112Y8435
X-2096Y6466
X-1112Y4498
X-128Y2529
X-2096
Y-1408
X-128
X-2096Y14340
X1841
X3809
X5778
X9715
X13652
X17589
T02
X17982Y2628
Y3415
Y6466
Y7254
Y9616
Y10403
X6073Y10600
Y9813
Y9025
Y8238
X1644Y6466
Y10502
X2825Y13946
X2726Y2234
X3514
X1939
X5581Y-1211
X6368
X13947Y-1014
X14734
X856Y6466
X69
X-719
Y10502
X69
X856
X2825Y14734
X7549Y14635
X8337
X11093
X11880
X14537Y14439
X15325
T03
X5797Y1348
X6797
X7797
X8797
X9797
X10797
X11797
X12797
X13797
X14797
Y4348
X13797
X12797
X11797
X10797
X9797
X8797
X7797
X6797
X5797
X8927Y6541
Y7541
Y8541
Y9541
Y10541
Y11541
X5089Y12946
Y13946
X14833Y11541
Y10541
Y9541
Y8541
Y7541
Y6541
X11782Y-1309
X10782
X9782
X8781
X-1407Y1824
Y2824
Y3824
X5089Y14946
T04
X17224Y12992
X17126Y0
X0
X98Y12992
M30
